PathFileType	4	(X/Y/Z)	./resultDataOpenSim/trcMotMarkerGrf/sub09/qtm-02-03.trc
DataRate	CameraRate	NumFrames	NumMarkers	Units	OrigDataRate	OrigDataStartFrame	OrigNumFrames
250.000000	250.000000	6	24	m	250.000000	296	472
Frame#	Time	L.Toe.Tip			R.Toe.Tip			L.Ankle.Lat			R.Ankle.Lat			L.Ankle.Med			R.Ankle.Med			L.Heel			R.Heel			L.Knee.Lat			R.Knee.Lat			L.Knee.Med			R.Knee.Med			L.Thigh.Upper			R.Thigh.Upper			L.ASIS			R.ASIS			V.Sacral			L.Acromium			R.Acromium			C7			L.Elbow			R.Elbow			L.Wrist.Lat			R.Wrist.Lat
		X1	Y1	Z1	X2	Y2	Z2	X3	Y3	Z3	X4	Y4	Z4	X5	Y5	Z5	X6	Y6	Z6	X7	Y7	Z7	X8	Y8	Z8	X9	Y9	Z9	X10	Y10	Z10	X11	Y11	Z11	X12	Y12	Z12	X13	Y13	Z13	X14	Y14	Z14	X15	Y15	Z15	X16	Y16	Z16	X17	Y17	Z17	X18	Y18	Z18	X19	Y19	Z19	X20	Y20	Z20	X21	Y21	Z21	X22	Y22	Z22	X23	Y23	Z23	X24	Y24	Z24

296	1.18	0.17932628	0.015835293	-0.0058966264	1.0382206	0.050453639	0.097519385	0.089133844	0.1329692	-0.070114192	0.88979293	0.052312721	0.12990556	0.12092462	0.13778732	0.022823851	0.8938078	0.094338328	0.039183182	0.01536084	0.14957343	-0.025269674	0.82373933	0.029726015	0.079186686	0.37847961	0.44344567	-0.10765479	0.7964022	0.502859	0.18188655	0.38365156	0.43337506	0.018154055	0.78397947	0.47992407	0.057639937	0.51637985	0.83144638	-0.13037974	0.5802998	0.83592658	0.23714223	0.63042045	0.90490019	-0.088825368	0.64892467	0.92230444	0.15355592	0.47169926	0.97032293	0.047466606	0.63764632	1.36837	-0.11741544	0.60012141	1.3728838	0.21164277	0.55550608	1.4218636	0.042010237	0.51677094	1.0107301	-0.18945587	0.44015853	1.0453906	0.28563009	0.74124358	0.85783183	-0.17046942	0.55245625	0.80031986	0.32260367
297	1.184	0.17984677	0.016150452	-0.0062689962	1.0397807	0.046656275	0.095866495	0.093369766	0.13633082	-0.071626261	0.89144739	0.051841575	0.12972886	0.12631181	0.14021644	0.020855415	0.89519821	0.093938422	0.038950621	0.020900138	0.15494349	-0.025934216	0.82431463	0.030329432	0.079664686	0.38794732	0.44269502	-0.10884786	0.80522457	0.50476476	0.18211779	0.39302002	0.43182909	0.01689419	0.79077226	0.48127477	0.058165649	0.52434646	0.83061414	-0.12985963	0.58797272	0.83691003	0.23770422	0.6379324	0.90440522	-0.087638599	0.65609729	0.92289938	0.15413501	0.4794126	0.97015493	0.047955947	0.6444377	1.3682963	-0.11706726	0.60714783	1.3727648	0.21211718	0.56236325	1.4216651	0.042485665	0.52318545	1.0107216	-0.18891722	0.44782062	1.0451419	0.2860715	0.74640555	0.85634996	-0.17038792	0.55988484	0.80002777	0.32300525
298	1.188	0.18061473	0.016710315	-0.0066357049	1.0409987	0.04424749	0.093864378	0.097889009	0.13984	-0.07303829	0.89264199	0.051610575	0.12917891	0.13203045	0.14280695	0.018934018	0.89610007	0.09340048	0.03829132	0.026826223	0.16051136	-0.026527653	0.8247869	0.030693112	0.07974945	0.3977436	0.4418041	-0.11012844	0.81400588	0.50630731	0.18227745	0.4027748	0.42995825	0.015584295	0.79756554	0.48272961	0.058590083	0.53234446	0.82978595	-0.12922167	0.59539237	0.83803866	0.23833674	0.64499151	0.90388725	-0.086263338	0.66316938	0.92357537	0.15472069	0.48698138	0.97008941	0.047953855	0.6512332	1.3683125	-0.11670518	0.61418295	1.3727153	0.21255912	0.56917124	1.4214979	0.04294332	0.52961257	1.0108429	-0.18836521	0.45551254	1.0449336	0.28650214	0.75148262	0.85487759	-0.17032588	0.56729059	0.79978773	0.32339344
299	1.192	0.181684	0.017550059	-0.0069944844	1.0419155	0.043017936	0.092122807	0.10274543	0.14352108	-0.074335893	0.89346206	0.05164002	0.12847446	0.13803865	0.1455958	0.017130826	0.89668064	0.092773578	0.037446752	0.033107815	0.16623841	-0.027092313	0.82524782	0.030892914	0.079521548	0.40786228	0.44076961	-0.11146829	0.82254344	0.50741691	0.18235678	0.41281783	0.42795226	0.014276771	0.8043355	0.48418913	0.058877615	0.54035986	0.82896673	-0.12845176	0.60259938	0.83926668	0.23907533	0.65192733	0.90332649	-0.085106606	0.67012598	0.92432753	0.15532237	0.4943408	0.9700741	0.047802953	0.65803078	1.3684178	-0.11633641	0.62121193	1.3727342	0.21296752	0.57593823	1.421376	0.043378191	0.53604558	1.0111039	-0.18780737	0.46316543	1.0447656	0.28689073	0.75649494	0.85341262	-0.17027622	0.57473537	0.79962459	0.32378384
300	1.196	0.18304988	0.01865667	-0.0073474227	1.0425647	0.042417239	0.091039034	0.10796482	0.14737774	-0.075531823	0.89398764	0.05186828	0.12787075	0.14428567	0.14858646	0.015502217	0.89709728	0.092190554	0.036690343	0.039721274	0.17209783	-0.02765063	0.82566568	0.031015368	0.07924029	0.41823929	0.4396214	-0.11283074	0.83072892	0.5082057	0.18233972	0.42303056	0.42605458	0.013073425	0.81111097	0.48565825	0.059022757	0.54836598	0.82816878	-0.12751398	0.60964799	0.8405681	0.23995117	0.65891834	0.90276153	-0.084143941	0.67696564	0.92515655	0.1559763	0.50155576	0.97005223	0.047933026	0.66482891	1.3685985	-0.11596544	0.62823268	1.3728065	0.21335206	0.58268392	1.4213099	0.043796991	0.54247481	1.0114939	-0.18724801	0.47073267	1.0446432	0.28722809	0.76145667	0.85194455	-0.17023089	0.58228968	0.79954669	0.32418727
301	1.2	0.18467108	0.0199921	-0.0077117538	1.043024	0.041996359	0.090575629	0.11356186	0.15140727	-0.076641567	0.89431821	0.052155587	0.12751222	0.15072311	0.15176085	0.014077695	0.89743067	0.0917632	0.036186166	0.046672301	0.17809295	-0.02822382	0.82597309	0.031114518	0.079156294	0.42880584	0.43841823	-0.11416884	0.83851842	0.50881309	0.18226111	0.43356674	0.42439231	0.011890265	0.81793315	0.48719765	0.059048913	0.55633159	0.82741064	-0.12640603	0.61656369	0.84192624	0.24096473	0.66605666	0.90226607	-0.083172063	0.68369582	0.92606188	0.15671914	0.50871514	0.97004758	0.048422501	0.67162251	1.3688427	-0.11559817	0.63524843	1.3729203	0.21372418	0.5894287	1.4213077	0.044213857	0.54888877	1.0119932	-0.18668612	0.47821254	1.0445738	0.28755618	0.76635765	0.85047671	-0.17019024	0.58998308	0.79954677	0.32460556
